<?xml version="1.0" encoding="utf-8"?>
<!-- Generator: Adobe Illustrator 16.0.0, SVG Export Plug-In . SVG Version: 6.00 Build 0)  -->
<!DOCTYPE svg PUBLIC "-//W3C//DTD SVG 1.0//EN" "http://www.w3.org/TR/2001/REC-SVG-20010904/DTD/svg10.dtd">
<svg version="1.0" id="Layer_1" xmlns="http://www.w3.org/2000/svg" xmlns:xlink="http://www.w3.org/1999/xlink" x="0px" y="0px"
	 width="64px" height="64px" viewBox="0 0 64 64" enable-background="new 0 0 64 64" xml:space="preserve">
<g>
	<polygon fill="#231F20" points="12,40.02 32,40.02 40,24.02 12,24.02 	"/>
	<path fill="#231F20" d="M60,19.996L56,20v-4c0-2.211-1.789-4-4-4H4c-2.211,0-4,1.789-4,4v31.996c0,2.211,1.789,4,4,4h48
		c2.211,0,4-1.789,4-4v-4h4c2.211,0,4-1.789,4-4v-16C64,21.785,62.211,19.996,60,19.996z M56,35.996h-8v8H8v-24h40v8h8V35.996z"/>
</g>
</svg>
