<?xml version="1.0" encoding="utf-8"?>
<!-- Generator: Adobe Illustrator 16.0.0, SVG Export Plug-In . SVG Version: 6.00 Build 0)  -->
<!DOCTYPE svg PUBLIC "-//W3C//DTD SVG 1.0//EN" "http://www.w3.org/TR/2001/REC-SVG-20010904/DTD/svg10.dtd">
<svg version="1.0" id="Layer_1" xmlns="http://www.w3.org/2000/svg" xmlns:xlink="http://www.w3.org/1999/xlink" x="0px" y="0px"
	 width="64px" height="64px" viewBox="0 0 64 64" enable-background="new 0 0 64 64" xml:space="preserve">
<path fill-rule="evenodd" clip-rule="evenodd" fill="#231F20" d="M55.938,32.711C55.945,32.469,56,32.238,56,32
	C56,18.738,45.258,8,32,8S8,18.738,8,32c0,0.238,0.055,0.469,0.062,0.711C3.379,34.352,0,38.758,0,44c0,6.621,5.371,12,12,12l0,0h40
	l0,0c6.625,0,12-5.375,12-12C64,38.754,60.617,34.352,55.938,32.711z M52,48L52,48H12l0,0c-2.211,0-4-1.793-4-4c0-2.215,1.789-4,4-4
	h4c0-4,0-5.074,0-8c0-8.836,7.16-16,16-16s16,7.164,16,16c0,2.926,0,4,0,8h4c2.211,0,4,1.785,4,4C56,46.207,54.211,48,52,48z"/>
</svg>
