<?xml version="1.0" encoding="utf-8"?>
<!-- Generator: Adobe Illustrator 16.0.0, SVG Export Plug-In . SVG Version: 6.00 Build 0)  -->
<!DOCTYPE svg PUBLIC "-//W3C//DTD SVG 1.0//EN" "http://www.w3.org/TR/2001/REC-SVG-20010904/DTD/svg10.dtd">
<svg version="1.0" id="Layer_1" xmlns="http://www.w3.org/2000/svg" xmlns:xlink="http://www.w3.org/1999/xlink" x="0px" y="0px"
	 width="64px" height="64px" viewBox="0 0 64 64" enable-background="new 0 0 64 64" xml:space="preserve">
<path fill="#231F20" d="M48,7.965c-4.418,0-8.418,1.793-11.312,4.688L32,17.309l-4.688-4.656C24.418,9.758,20.418,7.965,16,7.965
	c-8.836,0-16,7.164-16,16c0,4.418,2.852,8.543,5.75,11.438l23.422,23.426c1.562,1.562,4.094,1.562,5.656,0l23.359-23.363
	C61.086,32.57,64,28.383,64,23.965C64,15.129,56.836,7.965,48,7.965z M32,50.34L11.375,29.715C9.926,28.27,8,26.176,8,23.965
	c0-4.418,3.582-8,8-8c2.211,0,4.211,0.895,5.656,2.344l7.516,7.484c1.562,1.562,4.094,1.562,5.656,0l7.516-7.484
	c1.445-1.449,3.445-2.344,5.656-2.344c4.418,0,8,3.582,8,8c0,2.211-1.926,4.305-3.375,5.75L32,50.34z"/>
</svg>
