<?xml version="1.0" encoding="utf-8"?>
<!-- Generator: Adobe Illustrator 16.0.0, SVG Export Plug-In . SVG Version: 6.00 Build 0)  -->
<!DOCTYPE svg PUBLIC "-//W3C//DTD SVG 1.0//EN" "http://www.w3.org/TR/2001/REC-SVG-20010904/DTD/svg10.dtd">
<svg version="1.0" id="Layer_1" xmlns="http://www.w3.org/2000/svg" xmlns:xlink="http://www.w3.org/1999/xlink" x="0px" y="0px"
	 width="64px" height="64px" viewBox="0 0 64 64" enable-background="new 0 0 64 64" xml:space="preserve">
<g>
	<path fill="#231F20" d="M52,0h-8H12C9.789,0,8,1.789,8,4v56c0,2.211,1.789,4,4,4h40c2.211,0,4-1.789,4-4V4C56,1.789,54.211,0,52,0z
		 M48,56H16V8h32V56z"/>
	<path fill="#231F20" d="M28,20h8c2.211,0,4-1.789,4-4s-1.789-4-4-4h-8c-2.211,0-4,1.789-4,4S25.789,20,28,20z"/>
	<circle fill="#231F20" cx="32" cy="48" r="4"/>
</g>
</svg>
