<?xml version="1.0" encoding="utf-8"?>
<!-- Generator: Adobe Illustrator 16.0.0, SVG Export Plug-In . SVG Version: 6.00 Build 0)  -->
<!DOCTYPE svg PUBLIC "-//W3C//DTD SVG 1.0//EN" "http://www.w3.org/TR/2001/REC-SVG-20010904/DTD/svg10.dtd">
<svg version="1.0" id="Layer_1" xmlns="http://www.w3.org/2000/svg" xmlns:xlink="http://www.w3.org/1999/xlink" x="0px" y="0px"
	 width="64px" height="64px" viewBox="0 0 64 64" enable-background="new 0 0 64 64" xml:space="preserve">
<path fill="#231F20" d="M51.999,63.999c-1.039,0-2.062-0.406-2.828-1.172L31.999,45.655L14.828,62.827
	c-1.148,1.145-2.863,1.488-4.359,0.867C8.973,63.077,8,61.616,8,59.999V4c0-2.211,1.789-4,4-4h39.999c2.211,0,4,1.789,4,4v55.999
	c0,1.617-0.973,3.078-2.469,3.695C53.034,63.901,52.515,63.999,51.999,63.999z M31.999,35.999c1.023,0,2.047,0.391,2.828,1.172
	l13.172,13.172V8H16v42.343l13.172-13.172C29.953,36.39,30.977,35.999,31.999,35.999z"/>
</svg>
